# xmcd CD database file
#
# Track frame offsets:
#	150
#	15932
#	35897
#	47567
#	69447
#	82225
#	111842
#	136065
#	152745
#	169957
#	193730
#	217457
#	230390
#	246897
#	268010
#	288810
#	300217
#	309157
#
# Disc length: 4443 seconds
#
# Revision: 3
# Processed by: cddbd v1.5.1PL0 Copyright (c) Steve Scherf et al.
# Submitted via: CDex 1.51
#
DISCID=f8115912
DTITLE=Fishbone - Fishbone 101 - Nuttasaurusmeg Fossil Fuelin' The Fonkay (Disk 2)
DYEAR=1996
DGENRE=Rock
TTITLE0=Skankin' To The Beat
TTITLE1=Lyin' Ass Bitch
TTITLE2=Mister Zero
TTITLE3=Alcoholic
TTITLE4=Fishbone (Is Red Hot)
TTITLE5=Pink Vapor Stew
TTITLE6=And They Prey On You
TTITLE7=Poem Dance - Instrumental
TTITLE8=Game Of Destruction
TTITLE9=Glow In The Dark
TTITLE10=What Have I Done
TTITLE11=Skankin' To The Beat
TTITLE12=? (Modern Industry) (Dub)
TTITLE13=Slick Nick, You Devil You
TTITLE14=Iration
TTITLE15=Just Call Me Scrooge
TTITLE16=Love And Bullshit
TTITLE17=The Goose
EXTD=YEAR: 1996
EXTT0=K. Jones - W. A. Kibby II
EXTT1=L. Grant - K. Jones - A. Moore
EXTT2=Fishbone
EXTT3=Fishbone
EXTT4=Fishbone
EXTT5=K. Jones - A. Moore - J. Fisher
EXTT6=Fishbone
EXTT7=Fishbone
EXTT8=Fishbone
EXTT9=Fishbone
EXTT10=Fishbone
EXTT11=K. Jones - W. A. Kibby II
EXTT12=D. Kahne - K. Jones
EXTT13=C. Dowd - A. Moore
EXTT14=K. Jones - J. Fisher
EXTT15=A.Moore - W. A. Kibby II
EXTT16=A. Moore - W. A. Kibby II
EXTT17=G. Clinton - E. Hazel
PLAYORDER=
